# AST/ASF file generated using VICON BodyLanguage
# -----------------------------------------------
:version 1.10
:name VICON
:units
  mass 1.0
  length 0.45
  angle deg
:documentation
   .ast/.asf automatically generated from VICON data using
   VICON BodyBuilder and BodyLanguage model FoxedUp or BRILLIANT.MOD
:root
   order TX TY TZ RX RY RZ
   axis XYZ
   position 0 0 0  
   orientation 0 0 0 
:bonedata
  begin
     id 1 
     name lhipjoint
     direction 0.584852 -0.759097 0.285867 
     length 2.43633 
     axis 0 0 0  XYZ
  end
  begin
     id 2 
     name lfemur
     direction 0.34202 -0.939693 0  
     length 7.14704  
     axis 0 0 20  XYZ
    dof rx ry rz
    limits (-160.0 20.0)
           (-70.0 70.0)
           (-60.0 70.0)
  end
  begin
     id 3 
     name ltibia
     direction 0.342022 -0.939692 0   
     length 7.68483   
     axis 0 0 20   XYZ
    dof rx
    limits (-10.0 170.0)
  end
  begin
     id 4 
     name lfoot
     direction 0.0999605 -0.274639 0.956337   
     length 2.40452   
     axis -90 7.62852e-016 20   XYZ
    dof rx rz
    limits (-45.0 90.0)
           (-70.0 20.0)
  end
  begin
     id 5 
     name ltoes
     direction 1.53468e-011 -4.21881e-011 1   
     length 1.19837   
     axis -90 7.62852e-016 20   XYZ
    dof rx
    limits (-90.0 20.0)
  end
  begin
     id 6 
     name rhipjoint
     direction -0.569886 -0.769002 0.289597   
     length 2.40495  
     axis 0 0 0  XYZ 
  end
  begin
     id 7 
     name rfemur
     direction -0.34202 -0.939693 0   
     length 7.45086   
     axis 0 0 -20   XYZ
    dof rx ry rz
    limits (-160.0 20.0)
           (-70.0 70.0)
           (-70.0 60.0)
  end
  begin
     id 8 
     name rtibia
     direction -0.34202 -0.939693 0   
     length 7.76831   
     axis 0 0 -20   XYZ
    dof rx
    limits (-10.0 170.0)
 end
 begin
     id 9 
     name rfoot
     direction -0.0798572 -0.219406 0.97236   
     length 2.35911  
     axis -90 -7.62852e-016 -20   XYZ
    dof rx rz
    limits (-45.0 90.0)
           (-20.0 70.0)
  end
  begin
     id 10 
     name rtoes
     direction -1.53469e-011 -4.21728e-011 1   
     length 1.18261   
     axis -90 -7.62852e-016 -20   XYZ
    dof rx
    limits (-90.0 20.0)
  end
  begin
     id 11 
     name lowerback
     direction 0.0242088 0.999437 0.0232389   
     length 2.1561   
     axis 0 0 0   XYZ
    dof rx ry rz
    limits (-20.0 45.0)
           (-30.0 30.0)
           (-30.0 30.0)
  end
  begin
     id 12 
     name upperback
     direction -0.0356893 0.999013 -0.0264323   
     length 2.14431   
     axis 0 0 0   XYZ
    dof rx ry rz
    limits (-20.0 45.0)
           (-30.0 30.0)
           (-30.0 30.0)
  end
  begin
     id 13 
     name thorax
     direction -0.0472163 0.998194 -0.0371284   
     length 2.16169   
     axis 0 0 0   XYZ
    dof rx ry rz
    limits (-20.0 45.0)
           (-30.0 30.0)
           (-30.0 30.0)
  end
  begin
     id 14 
     name lowerneck
     direction 0.00863244 0.999921 0.00911972   
     length 1.58651   
     axis 0 0 0   XYZ
    dof rx ry rz
    limits (-20.0 45.0)
           (-30.0 30.0)
           (-30.0 30.0)
  end
  begin
     id 15 
     name upperneck
     direction 0.149523 0.979068 -0.138086   
     length 1.57486   
     axis 0 0 0   XYZ
    dof rx ry rz
    limits (-20.0 45.0)
           (-30.0 30.0)
           (-30.0 30.0)
  end
  begin
     id 16
     name head
     direction 0.0445219 0.997708 -0.0509576  
     length 1.6019  
     axis 0 0 0   XYZ
    dof rx ry rz
    limits (-20.0 45.0)
           (-30.0 30.0)
           (-30.0 30.0)
  end
  begin
     id 17 
     name lclavicle
     direction 0.911271 0.381667 -0.154644  
     length 3.80848  
     axis 0 0 0   XYZ
    dof ry rz
    limits (-20.0 10.0)
           (0.0 20.0)
  end
  begin
     id 18 
     name lhumerus
     direction 1 -4.49003e-011 2.1308e-027   
     length 5.19069   
     axis 180 -30 -90   XYZ
    dof rx ry rz
    limits (-60.0 90.0)
           (-90.0 90.0)
           (-90.0 90.0)
  end
  begin
     id 19
     name lradius
     direction 1 -4.48914e-011 4.01554e-027   
     length 3.30016   
     axis 180 -30 -90   XYZ
    dof rx
    limits (-10.0 170.0)
  end
  begin
     id 20
     name lwrist
     direction 1 -4.49003e-011 1.1934e-026   
     length 1.65008   
     axis -8.46377e-015 90 90   XYZ
    dof ry
    limits (-180.0 0.0)
 end
  begin
     id 21 
     name lhand
     direction 1 -4.49034e-011 2.38659e-026   
     length 0.707698   
     axis -1.52313e-014 90 90   XYZ
    dof rx rz
    limits (-90.0 90.0)
           (-45.0 45.0)
  end
  begin
     id 22 
     name lfingers
     direction 1 -4.48691e-011 4.77775e-026   
     length 0.570564   
     axis -3.04623e-014 90 90   XYZ
    dof rx
    limits (0.0 90.0)
  end
  begin
     id 23
     name lthumb
     direction 0.707107 -6.34832e-011 0.707107   
     length 0.819219   
     axis -90 45 -1.62303e-014   XYZ
    dof rx rz
    limits (-45.0 45.0)
           (-45.0 45.0)
  end
  begin
     id 24 
     name rclavicle
     direction -0.815579 0.573708 -0.0754329   
     length 3.54371  
     axis 0 0 0   XYZ 
    dof ry rz
    limits (-10.0 20.0)
           (-20.0 0.0)
  end
  begin
     id 25 
     name rhumerus
     direction -1 -4.48956e-011 3.05351e-028  
     length 5.23924   
     axis 180 30 90   XYZ
    dof rx ry rz
    limits (-90.0 60.0)
           (-90.0 90.0)
           (-90.0 90.0)
  end
  begin
     id 26 
     name rradius
     direction -1 -4.49013e-011 3.53849e-027   
     length 3.32953   
     axis 180 30 90   XYZ
    dof rx
    limits (-10.0 170.0)
  end
  begin
     id 27 
     name rwrist
     direction -1 -4.48901e-011 1.19374e-026   
     length 1.66477   
     axis -8.46377e-015 -90 -90   XYZ
    dof ry
    limits (-180.0 0.0)
  end
  begin
     id 28
     name rhand
     direction -1 -4.48877e-011 2.38764e-026   
     length 0.607414   
     axis -1.52313e-014 -90 -90   XYZ
    dof rx rz
    limits (-90.0 90.0)
           (-45.0 45.0)
  end
  begin
     id 29
     name rfingers
     direction -1 -4.48882e-011 4.77521e-026   
     length 0.489712   
     axis -3.04623e-014 -90 -90   XYZ
    dof rx
    limits (0.0 90.0)
  end
  begin
     id 30
     name rthumb
     direction -0.707107 -6.34974e-011 0.707107   
     length 0.703132   
     axis -90 -45 1.62303e-014   XYZ
    dof rx rz
    limits (-45.0 45.0)
           (-45.0 45.0)
  end
:hierarchy
  begin
    root lhipjoint rhipjoint lowerback
    lhipjoint lfemur
    lfemur ltibia
    ltibia lfoot
    lfoot ltoes
    rhipjoint rfemur
    rfemur rtibia
    rtibia rfoot
    rfoot rtoes
    lowerback upperback
    upperback thorax
    thorax lowerneck lclavicle rclavicle
    lowerneck upperneck
    upperneck head
    lclavicle lhumerus
    lhumerus lradius
    lradius lwrist
    lwrist lhand lthumb
    lhand lfingers
    rclavicle rhumerus
    rhumerus rradius
    rradius rwrist
    rwrist rhand rthumb
    rhand rfingers
  end

#!OML:ASF E:\VariousWalksJay\Project 1\Capture day 1\Session 1\Actor2.ASF
:FULLY-SPECIFIED
:DEGREES
373
root 17.1519 16.1436 39.0504 162.081 -59.472 -157.819
lowerback -2.64696 -0.191728 7.00624
upperback 5.09944 -0.73129 -0.951489
thorax 6.75764 -0.0117007 -5.00309
lowerneck -1.55652 -5.5333 -5.99064
upperneck 23.3421 -13.0862 17.3138
head 9.07101 -5.99953 5.73801
rclavicle 6.52014e-014 1.59028e-015
rhumerus -36.7882 40.8264 -98.1051
rradius 70.2058
rwrist -2.71337
rhand 3.89933 -9.68098
rfingers 7.12502
rthumb 29.3196 -37.3893
lclavicle 6.52014e-014 1.59028e-015
lhumerus -17.2799 -22.6017 82.5233
lradius 37.2176
lwrist 11.978
lhand -16.6916 -6.36242
lfingers 7.12502
lthumb 9.53292 23.4019
rfemur -2.03708 -0.715723 36.742
rtibia 36.1508
rfoot -27.2643 -5.34694
rtoes -7.38834
lfemur -31.2315 -1.54175 -6.84543
ltibia 46.7303
lfoot -16.7819 1.88868
ltoes -7.88674
374
root 17.0351 16.1825 38.9633 162.786 -59.4252 -158.429
lowerback -3.46357 -0.202949 6.66628
upperback 4.55217 -0.713147 -1.33208
thorax 6.63946 -0.0145955 -5.21876
lowerneck -1.70669 -5.51715 -6.07341
upperneck 23.3938 -13.0491 17.2679
head 9.11401 -5.98813 5.73431
rclavicle -2.16675e-014 5.40694e-014
rhumerus -37.3267 41.2328 -98.5964
rradius 70.0212
rwrist -2.69518
rhand 4.12324 -9.39934
rfingers 7.12502
rthumb 29.5334 -37.0701
lclavicle -2.16675e-014 5.40694e-014
lhumerus -16.888 -22.9117 82.6024
lradius 37.7447
lwrist 12.1921
lhand -16.6127 -6.52956
lfingers 7.12502
lthumb 9.609 23.2313
rfemur -1.22952 -0.931687 36.4376
rtibia 35.2166
rfoot -26.6824 -5.08825
rtoes -7.43877
lfemur -30.4933 -1.41331 -7.08201
ltibia 46.2437
lfoot -17.082 1.88172
ltoes -8.03303
375
root 16.9201 16.222 38.8769 163.431 -59.4286 -158.926
lowerback -4.30283 -0.214298 6.36071
upperback 3.99649 -0.703767 -1.6751
thorax 6.5265 -0.0237245 -5.41534
lowerneck -1.84103 -5.51623 -6.14858
upperneck 23.3443 -13.0059 17.2313
head 9.11769 -5.97353 5.73158
rclavicle 3.27995e-014 -5.725e-014
rhumerus -37.8512 41.6229 -99.0083
rradius 69.955
rwrist -2.81455
rhand 4.29691 -9.20787
rfingers 7.12502
rthumb 29.6991 -36.8492
lclavicle 3.27995e-014 -5.725e-014
lhumerus -16.524 -23.2405 82.6358
lradius 38.2894
lwrist 12.3931
lhand -16.5013 -6.62492
lfingers 7.12502
lthumb 9.71657 23.131
rfemur -0.464881 -1.2412 36.1642
rtibia 34.2396
rfoot -26.0603 -4.79763
rtoes -7.3514
lfemur -29.8509 -1.33102 -7.27279
ltibia 45.7765
lfoot -17.3594 1.83941
ltoes -8.07451
376
root 16.8077 16.261 38.7906 163.941 -59.47 -159.28
lowerback -5.11748 -0.225451 6.10458
upperback 3.45031 -0.702388 -1.97813
thorax 6.41007 -0.0381902 -5.59848
lowerneck -1.95826 -5.5295 -6.21057
upperneck 23.1999 -12.9562 17.1976
head 9.08328 -5.95543 5.72677
rclavicle 6.30147e-014 -3.18055e-014
rhumerus -38.3252 42.0176 -99.3362
rradius 69.9786
rwrist -3.03987
rhand 4.52532 -9.07203
rfingers 7.12502
rthumb 29.9171 -36.6743
lclavicle 6.30147e-014 -3.18055e-014
lhumerus -16.1744 -23.5461 82.6217
lradius 38.8274
lwrist 12.5561
lhand -16.3632 -6.66118
lfingers 7.12502
lthumb 9.84976 23.0884
rfemur 0.32344 -1.65081 35.94
rtibia 33.194
rfoot -25.4074 -4.48033
rtoes -7.42418
lfemur -29.2625 -1.27797 -7.39467
ltibia 45.3475
lfoot -17.6216 1.74728
ltoes -8.00395
377
root 16.6983 16.2985 38.7052 164.262 -59.5313 -159.463
lowerback -5.86888 -0.234217 5.92437
upperback 2.92482 -0.706973 -2.24002
thorax 6.27937 -0.0559265 -5.78151
lowerneck -2.05223 -5.55815 -6.26727
upperneck 22.9752 -12.9059 17.1642
head 9.01603 -5.93765 5.72034
rclavicle 8.40859e-014 4.6118e-014
rhumerus -38.7253 42.4364 -99.5775
rradius 70.0738
rwrist -3.31686
rhand 4.80852 -9.004
rfingers 7.12502
rthumb 30.1873 -36.5572
lclavicle 8.40859e-014 4.6118e-014
lhumerus -15.8723 -23.8394 82.5378
lradius 39.3981
lwrist 12.7088
lhand -16.2203 -6.64689
lfingers 7.12502
lthumb 9.98766 23.0961
rfemur 1.17528 -2.1644 35.774
rtibia 32.0668
rfoot -24.7164 -4.12565
rtoes -7.63694
lfemur -28.695 -1.24285 -7.426
ltibia 44.9666
lfoot -17.8756 1.5957
ltoes -7.84018
378
root 16.5917 16.3336 38.6195 164.362 -59.5878 -159.491
lowerback -6.51177 -0.23646 5.82217
upperback 2.42961 -0.710007 -2.47303
thorax 6.11907 -0.0731837 -5.97713
lowerneck -2.11936 -5.59811 -6.30939
upperneck 22.6897 -12.8599 17.1372
head 8.92305 -5.92211 5.71297
rclavicle 3.18055e-015 1.90833e-014
rhumerus -39.0418 42.8663 -99.7565
rradius 70.2162
rwrist -3.58956
rhand 5.17621 -8.96111
rfingers 7.12502
rthumb 30.538 -36.4496
lclavicle 3.18055e-015 1.90833e-014
lhumerus -15.6243 -24.1027 82.3712
lradius 39.9869
lwrist 12.8421
lhand -16.072 -6.60863
lfingers 7.12502
lthumb 10.1307 23.1275
rfemur 2.1474 -2.76273 35.6617
rtibia 30.8623
rfoot -23.993 -3.74575
rtoes -8.11578
lfemur -28.0792 -1.20568 -7.36474
ltibia 44.6257
lfoot -18.1234 1.39155
ltoes -7.67516
379
root 16.4871 16.3659 38.5351 164.263 -59.6213 -159.389
lowerback -7.04919 -0.230346 5.80689
upperback 1.97311 -0.710348 -2.67763
thorax 5.93976 -0.0882759 -6.19095
lowerneck -2.16929 -5.65251 -6.33529
upperneck 22.3557 -12.8227 17.1032
head 8.81033 -5.91082 5.69909
rclavicle -3.33958e-014 -6.04305e-014
rhumerus -39.2434 43.3113 -99.848
rradius 70.394
rwrist -3.82749
rhand 5.65499 -8.92568
rfingers 7.12502
rthumb 30.9945 -36.3282
lclavicle -3.33958e-014 -6.04305e-014
lhumerus -15.4137 -24.3078 82.1283
lradius 40.5744
lwrist 12.9562
lhand -15.9473 -6.56554
lfingers 7.12502
lthumb 10.251 23.1647
rfemur 3.23174 -3.42311 35.5748
rtibia 29.6015
rfoot -23.233 -3.27899
rtoes -8.68919
lfemur -27.3991 -1.17511 -7.22635
ltibia 44.3121
lfoot -18.3716 1.174
ltoes -7.53204
380
root 16.3831 16.3947 38.4521 163.993 -59.6169 -159.187
lowerback -7.49149 -0.221733 5.87064
upperback 1.55881 -0.715563 -2.84918
thorax 5.74986 -0.104765 -6.41458
lowerneck -2.21627 -5.71168 -6.37203
upperneck 21.9927 -12.7861 17.0752
head 8.6889 -5.90031 5.68902
rclavicle -6.00827e-014 3.33958e-014
rhumerus -39.3275 43.7745 -99.8463
rradius 70.5992
rwrist -4.01593
rhand 6.22641 -8.87487
rfingers 7.12502
rthumb 31.539 -36.1722
lclavicle -6.00827e-014 3.33958e-014
lhumerus -15.2405 -24.421 81.81
lradius 41.1432
lwrist 13.0505
lhand -15.8375 -6.53642
lfingers 7.12502
lthumb 10.3569 23.1885
rfemur 4.41661 -4.12079 35.4958
rtibia 28.3151
rfoot -22.4318 -2.74324
rtoes -9.46104
lfemur -26.6336 -1.15919 -7.0242
ltibia 44.0071
lfoot -18.6327 0.979955
ltoes -7.43867
381
root 16.2792 16.4199 38.371 163.62 -59.5573 -158.939
lowerback -7.86829 -0.19998 5.98735
upperback 1.18576 -0.709775 -2.98781
thorax 5.5678 -0.11481 -6.63187
lowerneck -2.24848 -5.78122 -6.39774
upperneck 21.5939 -12.757 17.0413
head 8.55324 -5.8939 5.6743
rclavicle 1.73937e-016 3.18055e-014
rhumerus -39.2946 44.2202 -99.7359
rradius 70.8258
rwrist -4.15523
rhand 6.82997 -8.81906
rfingers 7.12502
rthumb 32.1138 -36.0021
lclavicle 1.73937e-016 3.18055e-014
lhumerus -15.1043 -24.4687 81.4224
lradius 41.6833
lwrist 13.1359
lhand -15.7614 -6.51687
lfingers 7.12502
lthumb 10.4303 23.2044
rfemur 5.66987 -4.82667 35.3969
rtibia 27.0408
rfoot -21.5888 -2.12103
rtoes -10.267
lfemur -25.781 -1.1562 -6.78551
ltibia 43.6966
lfoot -18.9186 0.841628
ltoes -7.39819
382
root 16.1751 16.442 38.292 163.254 -59.4518 -158.737
lowerback -8.20954 -0.162596 6.11613
upperback 0.843902 -0.685944 -3.1094
thorax 5.40135 -0.115825 -6.83588
lowerneck -2.26713 -5.85998 -6.43046
upperneck 21.1649 -12.7406 17.025
head 8.40917 -5.8942 5.66603
rclavicle -4.60683e-014 6.36111e-015
rhumerus -39.1522 44.5936 -99.5259
rradius 71.0548
rwrist -4.25953
rhand 7.41413 -8.74731
rfingers 7.12502
rthumb 32.6698 -35.8166
lclavicle -4.60683e-014 6.36111e-015
lhumerus -14.9841 -24.4436 80.9788
lradius 42.146
lwrist 13.1747
lhand -15.7063 -6.50461
lfingers 7.12502
lthumb 10.4835 23.214
rfemur 6.93588 -5.50157 35.236
rtibia 25.8234
rfoot -20.7058 -1.401
rtoes -10.8166
lfemur -24.8593 -1.17325 -6.56779
ltibia 43.3605
lfoot -19.2375 0.795356
ltoes -7.41694
383
root 16.0712 16.4607 38.2142 162.902 -59.2778 -158.569
lowerback -8.53521 -0.109534 6.24971
upperback 0.533097 -0.64439 -3.19589
thorax 5.26201 -0.107499 -7.00322
lowerneck -2.28657 -5.93881 -6.49805
upperneck 20.7109 -12.7249 17.0416
head 8.26225 -5.89547 5.67533
rclavicle 4.96962e-014 3.18055e-015
rhumerus -38.9031 44.9138 -99.2138
rradius 71.2728
rwrist -4.35577
rhand 7.91637 -8.66876
rfingers 7.12502
rthumb 33.1475 -35.6377
lclavicle 4.96962e-014 3.18055e-015
lhumerus -14.8892 -24.3405 80.4832
lradius 42.5357
lwrist 13.1806
lhand -15.6837 -6.48094
lfingers 7.12502
lthumb 10.5052 23.2366
rfemur 8.17998 -6.10494 35.0431
rtibia 24.7021
rfoot -19.784 -0.603174
rtoes -11.121
lfemur -23.8747 -1.18102 -6.35598
ltibia 42.9893
lfoot -19.5959 0.847863
ltoes -7.48106
384
root 15.9675 16.4771 38.1388 162.707 -59.052 -158.554
lowerback -8.8792 -0.0304683 6.33954
upperback 0.237592 -0.567112 -3.27341
thorax 5.15559 -0.0821002 -7.13195
lowerneck -2.28746 -6.02482 -6.57774
upperneck 20.2272 -12.7209 17.0832
head 8.10709 -5.90338 5.69477
rclavicle 7.35503e-015 -2.70347e-014
rhumerus -38.5622 45.1413 -98.8181
rradius 71.4617
rwrist -4.45214
rhand 8.27296 -8.61222
rfingers 7.12502
rthumb 33.4865 -35.5085
lclavicle 7.35503e-015 -2.70347e-014
lhumerus -14.8109 -24.169 79.9585
lradius 42.8222
lwrist 13.1196
lhand -15.674 -6.43827
lfingers 7.12502
lthumb 10.5146 23.2787
rfemur 9.34238 -6.62499 34.7572
rtibia 23.7125
rfoot -18.8378 0.239823
rtoes -11.4253
lfemur -22.8641 -1.17968 -6.22896
ltibia 42.5736
lfoot -19.9832 1.0302
ltoes -7.60063
385
root 15.8644 16.491 38.0643 162.672 -58.766 -158.691
lowerback -9.25033 0.0770688 6.37348
upperback -0.0427956 -0.44968 -3.34162
thorax 5.08777 -0.0371583 -7.21374
lowerneck -2.26398 -6.11375 -6.67375
upperneck 19.7121 -12.7238 17.1574
head 7.94225 -5.91615 5.72845
rclavicle -9.94917e-014 3.49861e-014
rhumerus -38.1424 45.2721 -98.3625
rradius 71.6052
rwrist -4.54235
rhand 8.42812 -8.56098
rfingers 7.12502
rthumb 33.634 -35.4252
lclavicle -9.94917e-014 3.49861e-014
lhumerus -14.7681 -23.9521 79.3984
lradius 43.0293
lwrist 13.0172
lhand -15.6774 -6.36049
lfingers 7.12502
lthumb 10.5113 23.3567
rfemur 10.4042 -7.03796 34.4008
rtibia 22.8894
rfoot -17.8766 1.107
rtoes -11.549
lfemur -21.8278 -1.13758 -6.17929
ltibia 42.1125
lfoot -20.3915 1.31511
ltoes -7.76233
386
root 15.763 16.5023 37.9903 162.789 -58.4216 -158.976
lowerback -9.63664 0.202675 6.34413
upperback -0.310559 -0.304059 -3.39888
thorax 5.04691 0.0209331 -7.24308
lowerneck -2.22781 -6.19912 -6.78904
upperneck 19.1869 -12.7248 17.2508
head 7.77513 -5.92937 5.77298
rclavicle -7.7526e-015 0
rhumerus -37.6562 45.3401 -97.8793
rradius 71.6841
rwrist -4.61088
rhand 8.39166 -8.51832
rfingers 7.12502
rthumb 33.5993 -35.3901
lclavicle -7.7526e-015 0
lhumerus -14.7616 -23.6428 78.8237
lradius 43.1407
lwrist 12.857
lhand -15.6881 -6.24942
lfingers 7.12502
lthumb 10.5011 23.4683
rfemur 11.3506 -7.32059 33.9985
rtibia 22.2661
rfoot -16.9216 1.95081
rtoes -11.8082
lfemur -20.7703 -1.02856 -6.20211
ltibia 41.6092
lfoot -20.8008 1.66949
ltoes -7.94058
387
root 15.6633 16.5129 37.9168 163.04 -58.0312 -159.386
lowerback -10.0378 0.343558 6.26274
upperback -0.567017 -0.134419 -3.44977
thorax 5.03023 0.0904899 -7.23144
lowerneck -2.18175 -6.28508 -6.90753
upperneck 18.6604 -12.7294 17.348
head 7.60799 -5.94521 5.81963
rclavicle -1.3577e-013 -4.77083e-015
rhumerus -37.1188 45.355 -97.3884
rradius 71.6978
rwrist -4.62712
rhand 8.16769 -8.4689
rfingers 7.12502
rthumb 33.3865 -35.3868
lclavicle -1.3577e-013 -4.77083e-015
lhumerus -14.8048 -23.268 78.2355
lradius 43.1786
lwrist 12.6721
lhand -15.7038 -6.10847
lfingers 7.12502
lthumb 10.4859 23.61
rfemur 12.1476 -7.45193 33.5656
rtibia 21.8643
rfoot -15.9692 2.79458
rtoes -11.8314
lfemur -19.7073 -0.848851 -6.28776
ltibia 41.0695
lfoot -21.2036 2.05421
ltoes -8.08524
